<?xml version="1.0" standalone="no"?>
<!DOCTYPE svg PUBLIC "-//W3C//DTD SVG 1.1//EN" "http://www.w3.org/Graphics/SVG/1.1/DTD/svg11.dtd">
<svg xmlns="http://www.w3.org/2000/svg" xmlns:xlink="http://www.w3.org/1999/xlink" version="1.1" id="Layer_1" x="0px" y="0px" viewBox="0 0 184.46 202.27" style="enable-background:new 0 0 184.46 202.27;" xml:space="preserve" width="184.4600067138672" height="202.27000427246094">
<style type="text/css">
	.st0{fill:#FFFFFF;}
</style>
<g>
	<g id="Layer_3_2_">
		<polygon class="st0" points="0,192.59 0,164.03 18.53,164.03 18.53,169.83 6.43,169.83 6.43,175.24 17.87,175.24 17.87,180.76     6.43,180.76 6.43,186.7 19.24,186.7 19.24,192.59   "/>
		<path class="st0" d="M34.58,183.84h-0.82c-0.7,0-1.41,0-2.13,0.1c-0.65,0.05-1.29,0.18-1.91,0.38c-0.52,0.17-0.99,0.45-1.38,0.83    c-0.38,0.38-0.58,0.9-0.55,1.44c-0.02,0.35,0.07,0.7,0.25,1c0.16,0.26,0.39,0.48,0.65,0.64c0.27,0.17,0.57,0.29,0.89,0.35    c0.33,0.06,0.66,0.1,1,0.1c1.11,0.08,2.2-0.33,2.99-1.11c0.7-0.83,1.06-1.9,1-2.99V183.84z M22.85,175.24    c1.13-1.13,2.49-2,3.99-2.54c1.49-0.56,3.07-0.85,4.66-0.85c1.41-0.04,2.81,0.18,4.14,0.63c1.08,0.38,2.03,1.05,2.74,1.94    c0.75,0.97,1.28,2.1,1.54,3.3c0.35,1.55,0.52,3.15,0.49,4.74v10.13h-5.84v-2.14h-0.12c-0.53,0.86-1.31,1.54-2.24,1.94    c-1.02,0.46-2.13,0.7-3.25,0.69c-0.82,0-1.63-0.12-2.42-0.33c-0.82-0.21-1.59-0.56-2.28-1.05c-0.71-0.51-1.29-1.17-1.7-1.94    c-0.47-0.93-0.69-1.96-0.66-2.99c-0.06-1.27,0.35-2.52,1.15-3.51c0.81-0.92,1.84-1.63,2.99-2.06c1.28-0.51,2.62-0.85,3.99-1    c1.42-0.15,2.85-0.23,4.28-0.23v-0.33c0.07-0.86-0.31-1.68-1-2.2c-0.74-0.49-1.61-0.74-2.49-0.71c-0.91,0-1.81,0.21-2.62,0.61    c-0.79,0.37-1.52,0.85-2.17,1.45L22.85,175.24z"/>
		<path class="st0" d="M56.35,178.43c-0.54-0.52-1.15-0.96-1.83-1.29c-0.69-0.35-1.45-0.53-2.23-0.53    c-0.57-0.01-1.14,0.12-1.66,0.36c-0.49,0.22-0.79,0.72-0.76,1.26c-0.01,0.54,0.33,1.03,0.84,1.21c0.88,0.34,1.78,0.61,2.7,0.81    c0.75,0.17,1.49,0.4,2.21,0.69c0.72,0.28,1.4,0.68,2,1.17c0.6,0.48,1.09,1.09,1.44,1.78c0.39,0.77,0.57,1.63,0.55,2.49    c0.03,1.12-0.22,2.22-0.74,3.21c-0.47,0.84-1.13,1.57-1.93,2.12c-0.81,0.55-1.72,0.94-2.67,1.17c-0.98,0.24-1.98,0.37-2.99,0.37    c-1.59,0-3.16-0.27-4.66-0.79c-1.43-0.47-2.73-1.27-3.79-2.33l3.58-3.91c0.59,0.67,1.3,1.21,2.1,1.62    c0.82,0.43,1.73,0.65,2.65,0.65c0.54,0,1.06-0.14,1.54-0.39c0.51-0.25,0.81-0.78,0.76-1.35c0.01-0.61-0.36-1.16-0.93-1.38    c-0.95-0.39-1.92-0.7-2.92-0.93c-0.68-0.17-1.35-0.38-2-0.65c-0.66-0.25-1.27-0.62-1.81-1.09c-0.55-0.48-0.99-1.07-1.29-1.73    c-0.36-0.76-0.53-1.59-0.51-2.43c-0.03-1.08,0.22-2.14,0.74-3.08c0.48-0.83,1.13-1.54,1.92-2.08c0.79-0.55,1.66-0.95,2.58-1.2    c0.92-0.25,1.87-0.38,2.82-0.38c1.45,0,2.89,0.24,4.26,0.71c1.32,0.43,2.52,1.15,3.52,2.12L56.35,178.43z"/>
		<path class="st0" d="M74.6,195.61c-0.35,0.97-0.79,1.91-1.31,2.8c-0.45,0.79-1.03,1.49-1.71,2.1c-0.68,0.59-1.46,1.03-2.32,1.32    c-1.03,0.31-2.1,0.46-3.17,0.44c-0.62,0-1.23-0.04-1.85-0.12c-0.56-0.07-1.11-0.17-1.66-0.32l0.7-5.57c0.33,0.11,0.66,0.2,1,0.26    c0.33,0.06,0.66,0.1,1,0.1c0.78,0.07,1.56-0.18,2.15-0.7c0.5-0.58,0.89-1.26,1.13-2l0.62-1.66l-8.09-19.76h7.09l4.32,12.9h0.12    l3.85-12.9h6.78L74.6,195.61z"/>
		<path class="st0" d="M101.48,171.65l-3.5,9.8h6.94L101.48,171.65z M108.89,192.61l-2.15-5.65H96.07l-2,5.61h-7.25l11.54-28.56    h6.47l11.45,28.56L108.89,192.61z"/>
		<path class="st0" d="M132.2,182.42c0-0.66-0.11-1.31-0.33-1.94c-0.22-0.6-0.56-1.16-1-1.64c-0.86-0.99-2.11-1.54-3.42-1.51    c-0.66-0.01-1.32,0.12-1.93,0.4c-0.55,0.26-1.03,0.63-1.42,1.1c-0.4,0.47-0.71,1.02-0.9,1.61c-0.22,0.64-0.32,1.32-0.32,2    c0,0.66,0.11,1.31,0.32,1.94c0.21,0.58,0.53,1.12,0.95,1.59c0.39,0.47,0.87,0.86,1.42,1.13c0.6,0.3,1.26,0.44,1.93,0.43    c0.69,0.02,1.37-0.13,2-0.43c0.56-0.26,1.07-0.64,1.48-1.11c0.42-0.47,0.73-1.02,0.94-1.62c0.22-0.64,0.34-1.32,0.33-2     M138.32,190.64c0.04,1.74-0.24,3.48-0.82,5.12c-0.94,2.75-3.13,4.88-5.9,5.76c-1.52,0.48-3.1,0.72-4.69,0.7    c-1.79-0.01-3.57-0.28-5.28-0.81c-1.69-0.48-3.28-1.27-4.69-2.34l3.19-4.72c0.9,0.84,1.95,1.49,3.09,1.92    c1.06,0.41,2.19,0.62,3.32,0.63c1.54,0.12,3.06-0.44,4.15-1.54c0.94-1.14,1.42-2.59,1.35-4.07v-1.22h-0.12    c-0.63,0.85-1.46,1.54-2.42,2c-1.09,0.5-2.27,0.74-3.46,0.72c-1.36,0.03-2.7-0.25-3.93-0.83c-1.12-0.53-2.11-1.29-2.9-2.24    c-0.81-0.97-1.43-2.08-1.82-3.28c-0.42-1.29-0.63-2.64-0.62-3.99c0-1.35,0.2-2.7,0.62-3.99c0.39-1.22,1.01-2.36,1.82-3.35    c0.8-0.97,1.79-1.75,2.9-2.32c1.21-0.6,2.54-0.89,3.89-0.87c1.21,0,2.4,0.26,3.5,0.77c1.09,0.52,2.01,1.35,2.62,2.4h0.08v-2.58    h6.04L138.32,190.64z"/>
		<path class="st0" d="M142.96,172.5h6.39v20.09h-6.39V172.5z M149.81,166.08c0,0.49-0.1,0.98-0.29,1.43    c-0.19,0.43-0.45,0.82-0.78,1.15c-0.33,0.33-0.73,0.59-1.17,0.77c-0.45,0.19-0.94,0.29-1.43,0.29c-0.98,0.02-1.92-0.36-2.6-1.07    c-1.05-1.05-1.36-2.63-0.78-3.99c0.18-0.43,0.44-0.82,0.78-1.15c0.34-0.33,0.74-0.59,1.17-0.79c0.45-0.2,0.94-0.3,1.44-0.3    c0.49,0,0.97,0.1,1.43,0.28c0.43,0.18,0.83,0.44,1.17,0.77c0.33,0.33,0.59,0.72,0.78,1.15c0.19,0.45,0.29,0.94,0.29,1.44"/>
		<rect x="154.03" y="162.09" class="st0" width="6.51" height="30.5"/>
		<path class="st0" d="M178.57,180.24c0.02-0.99-0.34-1.96-1-2.7c-0.73-0.79-1.79-1.21-2.86-1.13c-0.58-0.01-1.16,0.1-1.71,0.3    c-0.5,0.19-0.97,0.47-1.37,0.83c-0.39,0.35-0.7,0.76-0.94,1.23c-0.23,0.46-0.36,0.96-0.39,1.48L178.57,180.24z M184.44,182.79v0.8    c0.02,0.26,0.02,0.51,0,0.77h-14.1c0.05,0.54,0.22,1.07,0.49,1.54c0.27,0.46,0.63,0.86,1.06,1.19c0.43,0.34,0.92,0.61,1.44,0.79    c0.53,0.19,1.09,0.28,1.66,0.28c0.89,0.03,1.77-0.17,2.56-0.58c0.68-0.37,1.27-0.89,1.72-1.52l4.44,2.9    c-0.89,1.36-2.14,2.46-3.6,3.17c-1.62,0.77-3.4,1.15-5.2,1.11c-1.41,0.01-2.81-0.23-4.13-0.71c-1.26-0.45-2.42-1.15-3.4-2.06    c-1-0.93-1.78-2.07-2.3-3.33c-1.11-2.89-1.11-6.09,0-8.98c0.5-1.27,1.25-2.43,2.22-3.39c0.95-0.94,2.07-1.67,3.31-2.16    c1.31-0.52,2.71-0.78,4.12-0.77c1.35-0.02,2.69,0.24,3.94,0.75c1.17,0.49,2.22,1.22,3.07,2.16c0.89,1,1.57,2.17,2,3.43    C184.24,179.66,184.48,181.21,184.44,182.79"/>
		<path class="st0" d="M70.38,57.38h5.08c4.35,0,8.74-0.22,13.18-0.63c4.03-0.34,8.01-1.14,11.86-2.39    c3.22-1.02,6.16-2.78,8.58-5.13c2.3-2.37,3.52-5.59,3.38-8.89c0.06-2.1-0.49-4.18-1.57-5.99c-1.01-1.62-2.37-2.99-3.99-3.99    c-1.71-1.04-3.6-1.76-5.57-2.13c-1.99-0.41-4.02-0.62-6.05-0.63c-8.05,0-14.22,2.3-18.5,6.89c-4.28,4.59-6.42,10.81-6.41,18.67    V57.38z M143.23,110.76c-7.04,6.98-15.5,12.36-24.8,15.78c-9.25,3.48-19.06,5.26-28.94,5.26c-10.16,0-18.75-1.29-25.77-3.88    c-6.69-2.36-12.59-6.52-17.06-12.03c-4.35-5.43-7.53-12.28-9.55-20.55c-2.02-8.27-3.01-18.08-2.99-29.44V3.03h36.29v13.27h0.72    c3.28-5.34,8.14-9.53,13.91-11.98C91.36,1.44,98.24-0.04,105.2,0c5.05,0.03,10.08,0.7,14.97,2c5.07,1.3,9.87,3.51,14.15,6.52    c4.39,3.12,7.99,7.22,10.53,11.98c2.73,5.01,4.1,11.19,4.11,18.54c0,9.02-2.38,16.29-7.14,21.8c-5,5.69-11.32,10.08-18.39,12.78    c-8.04,3.13-16.46,5.14-25.04,5.99c-8.91,0.99-17.88,1.49-26.85,1.51v2c0,6.18,2.1,10.73,6.29,13.66    c4.19,2.93,9.35,4.39,15.48,4.38c5.66,0,11.25-1.29,16.34-3.76c4.92-2.28,9.44-5.31,13.42-8.98L143.23,110.76z"/>
	</g>
</g>
</svg>