<?xml version="1.0" standalone="no"?>
<!DOCTYPE svg PUBLIC "-//W3C//DTD SVG 1.1//EN" "http://www.w3.org/Graphics/SVG/1.1/DTD/svg11.dtd">
<svg xmlns="http://www.w3.org/2000/svg" xmlns:xlink="http://www.w3.org/1999/xlink" version="1.1" id="Layer_1" x="0px" y="0px" viewBox="0 0 184.5 202.3" style="enable-background:new 0 0 184.5 202.3;" xml:space="preserve" width="184.5" height="202.3000030517578">
<style type="text/css">
	.st0{fill:#330066;}
</style>
<g>
	<g id="Layer_3_2_">
		<polygon class="st0" points="0,192.6 0,164 18.5,164 18.5,169.8 6.4,169.8 6.4,175.2 17.9,175.2 17.9,180.8 6.4,180.8 6.4,186.7     19.2,186.7 19.2,192.6   "/>
		<path class="st0" d="M34.6,183.8h-0.8c-0.7,0-1.4,0-2.1,0.1c-0.6,0.1-1.3,0.2-1.9,0.4c-0.5,0.2-1,0.4-1.4,0.8    c-0.4,0.4-0.6,0.9-0.5,1.4c0,0.4,0.1,0.7,0.2,1c0.2,0.3,0.4,0.5,0.6,0.6c0.3,0.2,0.6,0.3,0.9,0.4c0.3,0.1,0.7,0.1,1,0.1    c1.1,0.1,2.2-0.3,3-1.1c0.7-0.8,1.1-1.9,1-3L34.6,183.8L34.6,183.8z M22.9,175.2c1.1-1.1,2.5-2,4-2.5c1.5-0.6,3.1-0.9,4.7-0.9    c1.4,0,2.8,0.2,4.1,0.6c1.1,0.4,2,1.1,2.7,1.9c0.8,1,1.3,2.1,1.5,3.3c0.3,1.6,0.5,3.1,0.5,4.7v10.1h-5.8v-2.1h-0.1    c-0.5,0.9-1.3,1.5-2.2,1.9c-1,0.5-2.1,0.7-3.2,0.7c-0.8,0-1.6-0.1-2.4-0.3c-0.8-0.2-1.6-0.6-2.3-1.1c-0.7-0.5-1.3-1.2-1.7-1.9    c-0.5-0.9-0.7-2-0.7-3c-0.1-1.3,0.4-2.5,1.1-3.5c0.8-0.9,1.8-1.6,3-2.1c1.3-0.5,2.6-0.9,4-1c1.4-0.1,2.9-0.2,4.3-0.2v-0.3    c0.1-0.9-0.3-1.7-1-2.2c-0.7-0.5-1.6-0.7-2.5-0.7c-0.9,0-1.8,0.2-2.6,0.6c-0.8,0.4-1.5,0.9-2.2,1.4L22.9,175.2z"/>
		<path class="st0" d="M56.3,178.4c-0.5-0.5-1.2-1-1.8-1.3c-0.7-0.4-1.5-0.5-2.2-0.5c-0.6,0-1.1,0.1-1.7,0.4    c-0.5,0.2-0.8,0.7-0.8,1.3c0,0.5,0.3,1,0.8,1.2c0.9,0.3,1.8,0.6,2.7,0.8c0.8,0.2,1.5,0.4,2.2,0.7c0.7,0.3,1.4,0.7,2,1.2    c0.6,0.5,1.1,1.1,1.4,1.8c0.4,0.8,0.6,1.6,0.5,2.5c0,1.1-0.2,2.2-0.7,3.2c-0.5,0.8-1.1,1.6-1.9,2.1c-0.8,0.6-1.7,0.9-2.7,1.2    c-1,0.2-2,0.4-3,0.4c-1.6,0-3.2-0.3-4.7-0.8c-1.4-0.5-2.7-1.3-3.8-2.3l3.6-3.9c0.6,0.7,1.3,1.2,2.1,1.6c0.8,0.4,1.7,0.6,2.7,0.6    c0.5,0,1.1-0.1,1.5-0.4c0.5-0.2,0.8-0.8,0.8-1.4c0-0.6-0.4-1.2-0.9-1.4c-1-0.4-1.9-0.7-2.9-0.9c-0.7-0.2-1.3-0.4-2-0.6    c-0.7-0.2-1.3-0.6-1.8-1.1c-0.5-0.5-1-1.1-1.3-1.7c-0.4-0.8-0.5-1.6-0.5-2.4c0-1.1,0.2-2.1,0.7-3.1c0.5-0.8,1.1-1.5,1.9-2.1    c0.8-0.6,1.7-0.9,2.6-1.2s1.9-0.4,2.8-0.4c1.5,0,2.9,0.2,4.3,0.7c1.3,0.4,2.5,1.1,3.5,2.1L56.3,178.4z"/>
		<path class="st0" d="M74.6,195.6c-0.3,1-0.8,1.9-1.3,2.8c-0.4,0.8-1,1.5-1.7,2.1c-0.7,0.6-1.5,1-2.3,1.3c-1,0.3-2.1,0.5-3.2,0.4    c-0.6,0-1.2,0-1.8-0.1c-0.6-0.1-1.1-0.2-1.7-0.3l0.7-5.6c0.3,0.1,0.7,0.2,1,0.3c0.3,0.1,0.7,0.1,1,0.1c0.8,0.1,1.6-0.2,2.2-0.7    c0.5-0.6,0.9-1.3,1.1-2l0.6-1.7l-8.1-19.8h7.1l4.3,12.9h0.1l3.8-12.9h6.8L74.6,195.6z"/>
		<path class="st0" d="M101.5,171.6l-3.5,9.8h6.9L101.5,171.6z M108.9,192.6l-2.2-5.6H96.1l-2,5.6h-7.2L98.4,164h6.5l11.4,28.6    L108.9,192.6z"/>
		<path class="st0" d="M132.2,182.4c0-0.7-0.1-1.3-0.3-1.9c-0.2-0.6-0.6-1.2-1-1.6c-0.9-1-2.1-1.5-3.4-1.5c-0.7,0-1.3,0.1-1.9,0.4    c-0.6,0.3-1,0.6-1.4,1.1c-0.4,0.5-0.7,1-0.9,1.6c-0.2,0.6-0.3,1.3-0.3,2c0,0.7,0.1,1.3,0.3,1.9c0.2,0.6,0.5,1.1,0.9,1.6    c0.4,0.5,0.9,0.9,1.4,1.1c0.6,0.3,1.3,0.4,1.9,0.4c0.7,0,1.4-0.1,2-0.4c0.6-0.3,1.1-0.6,1.5-1.1c0.4-0.5,0.7-1,0.9-1.6    C132.1,183.7,132.3,183.1,132.2,182.4 M138.3,190.6c0,1.7-0.2,3.5-0.8,5.1c-0.9,2.8-3.1,4.9-5.9,5.8c-1.5,0.5-3.1,0.7-4.7,0.7    c-1.8,0-3.6-0.3-5.3-0.8c-1.7-0.5-3.3-1.3-4.7-2.3l3.2-4.7c0.9,0.8,1.9,1.5,3.1,1.9c1.1,0.4,2.2,0.6,3.3,0.6    c1.5,0.1,3.1-0.4,4.2-1.5c0.9-1.1,1.4-2.6,1.4-4.1v-1.2h-0.1c-0.6,0.9-1.5,1.5-2.4,2c-1.1,0.5-2.3,0.7-3.5,0.7    c-1.4,0-2.7-0.2-3.9-0.8c-1.1-0.5-2.1-1.3-2.9-2.2c-0.8-1-1.4-2.1-1.8-3.3c-0.4-1.3-0.6-2.6-0.6-4c0-1.4,0.2-2.7,0.6-4    c0.4-1.2,1-2.4,1.8-3.4c0.8-1,1.8-1.8,2.9-2.3c1.2-0.6,2.5-0.9,3.9-0.9c1.2,0,2.4,0.3,3.5,0.8c1.1,0.5,2,1.4,2.6,2.4h0.1v-2.6h6    L138.3,190.6z"/>
		<path class="st0" d="M143,172.5h6.4v20.1H143V172.5z M149.8,166.1c0,0.5-0.1,1-0.3,1.4c-0.2,0.4-0.4,0.8-0.8,1.1    c-0.3,0.3-0.7,0.6-1.2,0.8c-0.4,0.2-0.9,0.3-1.4,0.3c-1,0-1.9-0.4-2.6-1.1c-1.1-1.1-1.4-2.6-0.8-4c0.2-0.4,0.4-0.8,0.8-1.1    c0.3-0.3,0.7-0.6,1.2-0.8c0.4-0.2,0.9-0.3,1.4-0.3c0.5,0,1,0.1,1.4,0.3c0.4,0.2,0.8,0.4,1.2,0.8c0.3,0.3,0.6,0.7,0.8,1.1    C149.7,165.1,149.8,165.6,149.8,166.1"/>
		<rect x="154" y="162.1" class="st0" width="6.5" height="30.5"/>
		<path class="st0" d="M178.6,180.2c0-1-0.3-2-1-2.7c-0.7-0.8-1.8-1.2-2.9-1.1c-0.6,0-1.2,0.1-1.7,0.3c-0.5,0.2-1,0.5-1.4,0.8    c-0.4,0.4-0.7,0.8-0.9,1.2c-0.2,0.5-0.4,1-0.4,1.5L178.6,180.2z M184.4,182.8v0.8c0,0.3,0,0.5,0,0.8h-14.1    c0.1,0.5,0.2,1.1,0.5,1.5c0.3,0.5,0.6,0.9,1.1,1.2c0.4,0.3,0.9,0.6,1.4,0.8c0.5,0.2,1.1,0.3,1.7,0.3c0.9,0,1.8-0.2,2.6-0.6    c0.7-0.4,1.3-0.9,1.7-1.5l4.4,2.9c-0.9,1.4-2.1,2.5-3.6,3.2c-1.6,0.8-3.4,1.1-5.2,1.1c-1.4,0-2.8-0.2-4.1-0.7    c-1.3-0.4-2.4-1.1-3.4-2.1c-1-0.9-1.8-2.1-2.3-3.3c-1.1-2.9-1.1-6.1,0-9c0.5-1.3,1.2-2.4,2.2-3.4c0.9-0.9,2.1-1.7,3.3-2.2    c1.3-0.5,2.7-0.8,4.1-0.8c1.4,0,2.7,0.2,3.9,0.8c1.2,0.5,2.2,1.2,3.1,2.2c0.9,1,1.6,2.2,2,3.4    C184.2,179.7,184.5,181.2,184.4,182.8"/>
		<path class="st0" d="M70.4,57.4h5.1c4.3,0,8.7-0.2,13.2-0.6c4-0.3,8-1.1,11.9-2.4c3.2-1,6.2-2.8,8.6-5.1c2.3-2.4,3.5-5.6,3.4-8.9    c0.1-2.1-0.5-4.2-1.6-6c-1-1.6-2.4-3-4-4c-1.7-1-3.6-1.8-5.6-2.1c-2-0.4-4-0.6-6.1-0.6c-8.1,0-14.2,2.3-18.5,6.9    s-6.4,10.8-6.4,18.7L70.4,57.4L70.4,57.4z M143.2,110.8c-7,7-15.5,12.4-24.8,15.8c-9.2,3.5-19.1,5.3-28.9,5.3    c-10.2,0-18.8-1.3-25.8-3.9c-6.7-2.4-12.6-6.5-17.1-12c-4.3-5.4-7.5-12.3-9.5-20.5s-3-18.1-3-29.4V3h36.3v13.3h0.7    c3.3-5.3,8.1-9.5,13.9-12C91.4,1.4,98.2,0,105.2,0c5.1,0,10.1,0.7,15,2c5.1,1.3,9.9,3.5,14.1,6.5c4.4,3.1,8,7.2,10.5,12    c2.7,5,4.1,11.2,4.1,18.5c0,9-2.4,16.3-7.1,21.8c-5,5.7-11.3,10.1-18.4,12.8c-8,3.1-16.5,5.1-25,6c-8.9,1-17.9,1.5-26.8,1.5v2    c0,6.2,2.1,10.7,6.3,13.7c4.2,2.9,9.3,4.4,15.5,4.4c5.7,0,11.2-1.3,16.3-3.8c4.9-2.3,9.4-5.3,13.4-9L143.2,110.8z"/>
	</g>
</g>
</svg>