<?xml version="1.0" encoding="utf-8"?>
<!-- Generator: Adobe Illustrator 28.1.0, SVG Export Plug-In . SVG Version: 6.00 Build 0)  -->
<svg version="1.1" id="Layer_1" xmlns="http://www.w3.org/2000/svg" xmlns:xlink="http://www.w3.org/1999/xlink" x="0px" y="0px"
	 viewBox="0 0 244.8 244.8" style="enable-background:new 0 0 244.8 244.8;" xml:space="preserve">
<style type="text/css">
	.st0{fill:#6633FF;}
	.st1{fill:#FFFFFF;}
</style>
<g>
	<path class="st0" d="M39.6,0h165.5c21.9,0,39.6,17.7,39.6,39.6v165.5c0,21.9-17.7,39.6-39.6,39.6H39.6C17.7,244.8,0,227,0,205.1
		V39.6C0,17.7,17.7,0,39.6,0z"/>
	<path class="st1" d="M104.4,115.2h4.3c3.7,0,7.4-0.2,11.2-0.5c3.4-0.3,6.8-1,10.1-2c2.7-0.9,5.2-2.3,7.3-4.3c2-2,3-4.8,2.9-7.6
		c0-1.8-0.4-3.6-1.3-5.1c-0.9-1.4-2-2.5-3.4-3.4s-3-1.6-4.7-1.9s-3.4-0.3-5.1-0.3c-6.8,0-12.1,1.9-15.7,5.8
		c-3.8,4.4-5.8,10.1-5.4,15.8L104.4,115.2L104.4,115.2z M166.2,160.5c-5.9,5.9-13.1,10.4-21,13.3c-7.9,2.9-16.2,4.5-24.6,4.5
		c-7.4,0.2-14.8-0.9-21.9-3.3c-5.7-2-10.7-5.5-14.5-10.2c-4-5.1-6.7-11.1-8.1-17.4c-1.8-8.2-2.7-16.6-2.5-25V69h30.8v11.3h0.6
		c2.8-4.5,6.9-8.1,11.8-10.2c5.4-2.5,11.2-3.7,17.2-3.7c4.3,0,8.6,0.6,12.7,1.7c4.3,1.1,8.4,3,12,5.5c3.7,2.7,6.8,6.1,8.9,10.2
		c2.4,4.8,3.6,10.2,3.4,15.7c0,7.6-2,13.8-6.1,18.5c-4.2,4.8-9.6,8.6-15.6,10.8c-6.8,2.7-14,4.4-21.2,5.1
		c-7.6,0.8-15.2,1.3-22.8,1.3v1.7c0,5.2,1.8,9.1,5.3,11.6c3.9,2.6,8.5,3.9,13.1,3.8c4.8,0,9.5-1.2,13.8-3.3
		c4.2-1.9,8.1-4.5,11.4-7.6L166.2,160.5L166.2,160.5z"/>
</g>
</svg>
